<?xml version="1.0" encoding="UTF-8" standalone="no"?>
<svg
   xmlns:dc="http://purl.org/dc/elements/1.1/"
   xmlns:cc="http://creativecommons.org/ns#"
   xmlns:rdf="http://www.w3.org/1999/02/22-rdf-syntax-ns#"
   xmlns:svg="http://www.w3.org/2000/svg"
   xmlns="http://www.w3.org/2000/svg"
   width="219.12614mm"
   height="52.794388mm"
   viewBox="0 0 219.12614 52.794388"
   version="1.1"
   id="svg8">
  <defs
     id="defs2" />
  <metadata
     id="metadata5">
    <rdf:RDF>
      <cc:Work
         rdf:about="">
        <dc:format>image/svg+xml</dc:format>
        <dc:type
           rdf:resource="http://purl.org/dc/dcmitype/StillImage" />
        <dc:title></dc:title>
      </cc:Work>
    </rdf:RDF>
  </metadata>
  <g
     id="layer1"
     transform="translate(-7173.9747,-9.1379791)">
    <flowRoot
       xml:space="preserve"
       id="flowRoot4501"
       style="font-style:normal;font-variant:normal;font-weight:normal;font-stretch:normal;font-size:133.33332825px;line-height:25px;font-family:Montserrat;-inkscape-font-specification:Montserrat;font-variant-ligatures:normal;font-variant-caps:normal;font-variant-numeric:normal;font-feature-settings:normal;text-align:start;letter-spacing:0px;word-spacing:0px;writing-mode:lr-tb;text-anchor:start;fill:#000000;fill-opacity:1;stroke:none"
       transform="scale(0.26458333)"><flowRegion
         id="flowRegion4503"><rect
           id="rect4505"
           width="1137.1428"
           height="514.28571"
           x="-1191.4286"
           y="42.519684" /></flowRegion><flowPara
         id="flowPara4507" /></flowRoot>    <g
       id="g4526"
       transform="translate(7523.7175,-12.695303)">
      <g
         id="flowRoot4485"
         style="font-style:normal;font-variant:normal;font-weight:normal;font-stretch:normal;font-size:133.33332825px;line-height:63.53385925px;font-family:Montserrat;-inkscape-font-specification:Montserrat;font-variant-ligatures:normal;font-variant-caps:normal;font-variant-numeric:normal;font-feature-settings:normal;text-align:start;letter-spacing:0px;word-spacing:0px;writing-mode:lr-tb;text-anchor:start;fill:#000000;fill-opacity:1;stroke:none"
         transform="matrix(0.26458333,0,0,0.26458333,-4.1010446,-2.6458334)"
         aria-label="Cimmerse">
        <path
           d="m -513.65026,167.74711 c -21.06667,0.13333 -35.86667,14.66666 -35.86667,36.13333 0,21.33333 14.4,35.86667 36.26667,35.86667 12.26666,0 22.4,-4.4 29.33333,-12 l -8.13333,-8.66667 c -5.2,5.33333 -12.26667,8.26667 -20,8.26667 -11.2,0 -19.6,-6.8 -22,-17.73334 h 53.6 c 1.86666,-25.6 -8.26667,-41.86666 -33.2,-41.86666 z m -20.66667,30.66666 c 1.73334,-11.33333 9.6,-18.39999 20.8,-18.39999 11.6,0 19.2,6.93333 19.73333,18.39999 z m -43.61373,-30.79999 c -13.6,0 -26.13333,6.13333 -26.13333,20.53333 -0.13333,25.6 37.2,17.46666 37.2,32 0,5.33333 -5.06667,7.6 -11.6,7.6 -7.73333,0 -17.6,-3.33334 -23.73333,-8.8 l -5.46667,10.93333 c 7.06667,6.4 18.13333,9.86667 28.53333,9.86667 14.26667,0 27.2,-6.53334 27.2,-21.06667 0.13334,-25.73333 -37.6,-18.66667 -37.6,-31.73333 0,-5.06667 4.4,-7.06667 10.4,-7.06667 6.26667,0 14.13334,2.4 20.4,6.26667 l 5.6,-11.33333 c -6.4,-4.53334 -15.86666,-7.2 -24.8,-7.2 z m -51.99084,0.66666 h -15.33333 v 70.93333 h 15.33333 v -37.06666 c 1.2,-12.13334 10.26667,-20.53334 24.53333,-19.73334 v -14.66666 c -11.2,0 -19.73333,5.06667 -24.53333,14.66666 z m -58.03873,-0.53333 c -21.06666,0.13333 -35.86666,14.66666 -35.86666,36.13333 0,21.33333 14.4,35.86667 36.26666,35.86667 12.26667,0 22.4,-4.4 29.33333,-12 l -8.13333,-8.66667 c -5.2,5.33333 -12.26667,8.26667 -20,8.26667 -11.2,0 -19.6,-6.8 -22,-17.73334 h 53.6 c 1.86667,-25.6 -8.26667,-41.86666 -33.2,-41.86666 z m -20.66666,30.66666 c 1.73333,-11.33333 9.59999,-18.39999 20.79999,-18.39999 11.6,0 19.2,6.93333 19.73334,18.39999 z m -48.58251,-30.66666 c -12.93334,0 -22.4,5.2 -26.93333,17.06666 -3.33334,-10.79999 -12,-17.06666 -24.66667,-17.06666 -11.73333,0 -20.8,4.26667 -25.73333,14.26666 v -13.73333 h -15.2 v 70.93333 h 15.2 v -35.06666 c 0,-12.4 7.46666,-21.73334 19.73333,-22.13334 10.4,0 16.66667,6.53334 16.66667,17.33334 v 39.86666 h 15.33333 v -35.06666 c 0,-12.4 7.33333,-21.73334 19.46666,-22.13334 10.4,0 16.8,6.53334 16.8,17.33334 v 39.86666 h 15.33334 v -44.13333 c 0,-16.93333 -9.73334,-27.33333 -26,-27.33333 z m -132.58251,0 c -12.93333,0 -22.4,5.2 -26.93333,17.06666 -3.33333,-10.79999 -12,-17.06666 -24.66666,-17.06666 -11.73334,0 -20.8,4.26667 -25.73334,14.26666 v -13.73333 h -15.2 v 70.93333 h 15.2 v -35.06666 c 0,-12.4 7.46667,-21.73334 19.73334,-22.13334 10.4,0 16.66666,6.53334 16.66666,17.33334 v 39.86666 h 15.33333 v -35.06666 c 0,-12.4 7.33334,-21.73334 19.46667,-22.13334 10.4,0 16.8,6.53334 16.8,17.33334 v 39.86666 h 15.33333 v -44.13333 c 0,-16.93333 -9.73333,-27.33333 -26,-27.33333 z m -116.21379,-29.06667 c -5.0666,0 -8.9333,3.86667 -8.9333,9.33334 0,5.33333 3.8667,9.2 8.9333,9.2 5.0667,0 8.93338,-3.86667 8.93338,-9.2 0,-5.46667 -3.86668,-9.33334 -8.93338,-9.33334 z m 7.60004,100.53333 v -70.93333 h -15.20004 v 70.93333 z m -59.42204,-93.73333 c -27.6,0 -49.0667,20.4 -49.0667,46.93333 0,26.8 21.2,47.46667 48.5333,47.46667 13.2,0 26.6667,-6 36.1334,-15.33333 l -9.3334,-10.4 c -7.0666,6.8 -16.6666,11.06666 -26,11.06666 -18.6666,0 -33.3333,-14.53333 -33.3333,-32.93333 0,-18.4 14.6667,-32.8 33.3333,-32.8 9.4667,0 19.2,4.53334 26,11.86667 l 9.2,-11.46667 c -9.0666,-8.93333 -22.2666,-14.4 -35.4666,-14.4 z"
           style="letter-spacing:-6.4800005px;word-spacing:0px;fill:#303a34;fill-opacity:1"
           id="path4670" />
      </g>
      <path
         d="m -402.63198,42.02651 -19.14916,-10.272099 0.2347,-20.175536 19.38386,-9.9034377 19.14916,10.2720997 -0.0934,8.028322 -0.14131,12.147214 z"
         id="path4517"
         style="fill:#b1f0f3;fill-opacity:1;stroke:#cbd6ff;stroke-width:11.31700039;stroke-miterlimit:4;stroke-dasharray:none;stroke-opacity:0.63878329" />
    </g>
    <path
       transform="matrix(0.85607117,-0.03379871,0.03151438,0.79821247,1030.0209,249.02661)"
       d="m 7204.137,70.66362 -27.7513,-17.549844 1.3229,-32.808335 29.0743,-15.2584898 27.7514,17.5498448 -1.3229,32.808334 z"
       id="path4585"
       style="fill:#eef1f8;fill-opacity:0.99619769;stroke:#eef1f8;stroke-width:0;stroke-miterlimit:4;stroke-dasharray:none;stroke-dashoffset:0;stroke-opacity:1" />
    <path
       style="fill:#c2e0fc;fill-opacity:0.99619769;stroke:#eef1f8;stroke-width:0;stroke-miterlimit:4;stroke-dasharray:none;stroke-dashoffset:0;stroke-opacity:1"
       id="path4587"
       d="m 7204.137,70.66362 -27.7513,-17.549844 1.3229,-32.808335 29.0743,-15.2584898 27.7514,17.5498448 -1.3229,32.808334 z"
       transform="matrix(0.59240125,-0.02338871,0.02180795,0.55236303,2930.2514,183.32445)" />
    <path
       transform="matrix(0.40994166,-0.01618499,0.0150911,0.38223522,4245.2109,137.85855)"
       d="m 7204.137,70.66362 -27.7513,-17.549844 1.3229,-32.808335 29.0743,-15.2584898 27.7514,17.5498448 -1.3229,32.808334 z"
       id="path4589"
       style="fill:#b1f1f3;fill-opacity:0.99619769;stroke:#eef1f8;stroke-width:0;stroke-miterlimit:4;stroke-dasharray:none;stroke-dashoffset:0;stroke-opacity:1" />
  </g>
</svg>
